<svg xmlns="http://www.w3.org/2000/svg" width="275.435" height="35.769" viewBox="0 0 275.435 35.769">
  <g id="Home" transform="translate(-250.557 -50.149)">
    <g id="Logo" transform="translate(250 50)">
      <g id="noun_Running_1473810" transform="translate(224.89)">
        <g id="Group">
          <path id="Path" d="M17.641,30.927a.776.776,0,0,0-.824-.818H2.473a.818.818,0,1,0,0,1.636H16.817A.823.823,0,0,0,17.641,30.927Z"/>
          <path id="Path-2" data-name="Path" d="M5.77,34.2H4.122a.818.818,0,1,0,0,1.636H5.77a.818.818,0,1,0,0-1.636Z"/>
          <path id="Path-3" data-name="Path" d="M9.645,26.836a.776.776,0,0,0-.824-.818h-8a.818.818,0,1,0,0,1.636h8A.823.823,0,0,0,9.645,26.836Z"/>
          <path id="Shape" d="M50.615,28.227a2.785,2.785,0,0,0-1.237-1.145l-6.265-2.373h0l-2.555-.9a4.024,4.024,0,0,1-1.814-1.473L36.6,18.818A.8.8,0,0,0,37.261,18a.776.776,0,0,0-.824-.818h-.824l-.989-1.636a.8.8,0,0,0,.659-.818.776.776,0,0,0-.824-.818h-.824L32.809,12.6a.787.787,0,0,0,.577-.736.776.776,0,0,0-.824-.818H31.82L30.748,9.327a.08.08,0,0,0-.082-.082,4.2,4.2,0,0,0-3.71-1.555,3.359,3.359,0,0,0-2.638,1.8.79.79,0,0,0,.082.736l6.842,11.618a.547.547,0,0,0,.412.327l8.408,3.191h.082l2.473.9h0L48.8,28.636a.675.675,0,0,1,.412.409,1.876,1.876,0,0,1-.082,1.964H35.694a3.876,3.876,0,0,1-2.308-.736l-23-16.936a2.39,2.39,0,0,0,.742-.736,3.5,3.5,0,0,0,.577-2.045l-.742-6.873.989-1.555a.786.786,0,0,1,1.072-.164c.247.245,1.237,1.064,3.627,4.909a8.116,8.116,0,0,0,5.441,3.436.9.9,0,0,0,.989-.655.9.9,0,0,0-.659-.982,6.809,6.809,0,0,1-4.369-2.782C15.168,1.473,14.344.818,14.014.573a2.5,2.5,0,0,0-3.38.573L5.606,9.082a2.289,2.289,0,0,0-.33,1.636,1.978,1.978,0,0,0-1.237.9L2.72,13.664a2.362,2.362,0,0,0,.659,3.273c.742.573,2.308,1.555,4.616,3.027a1.4,1.4,0,0,0,.412.164.841.841,0,0,0,.659-.409.8.8,0,0,0-.247-1.145C6.595,17.1,5.029,16.118,4.287,15.545a.759.759,0,0,1-.165-1.064L5.358,12.6a.786.786,0,0,1,1.072-.164h0L32.315,31.582a5.465,5.465,0,0,0,3.3,1.064H46.988A15.663,15.663,0,0,1,40.805,34.2H35.529a7.433,7.433,0,0,1-3.957-1.145c-4.781-3.027-13.684-8.673-20.2-12.845a.814.814,0,0,0-1.154.245.8.8,0,0,0,.247,1.145c6.347,4.091,15,9.573,19.867,12.682H9.068a.818.818,0,1,0,0,1.636H40.723c3.38,0,8.243-1.8,9.48-3.518A3.6,3.6,0,0,0,50.615,28.227ZM32.4,20.864,25.967,9.982a2.19,2.19,0,0,1,1.154-.573,2.5,2.5,0,0,1,2.226.9l.495.818H29.1a.818.818,0,1,0,0,1.636h1.731l.824,1.309H31a.818.818,0,1,0,0,1.636h1.649l.989,1.555h-.659a.818.818,0,1,0,0,1.636h1.649l2.308,3.6ZM7.007,9.982,9.562,5.973l.495,4.745a1.64,1.64,0,0,1-.247.9c-.165.245-.495.9-1.237.327a13.191,13.191,0,0,1-1.154-.818C6.925,10.718,6.842,10.309,7.007,9.982Z"/>
        </g>
      </g>
      <path id="ROCKETSHOES" d="M8.481,27.471H5.7V35H.557V13.672H8.95a9.361,9.361,0,0,1,5.933,1.685,5.71,5.71,0,0,1,2.139,4.761,6.938,6.938,0,0,1-.9,3.691,6.4,6.4,0,0,1-2.82,2.373l4.453,8.6V35H12.246ZM5.7,23.5H8.95a2.923,2.923,0,0,0,2.2-.769,2.968,2.968,0,0,0,.74-2.146,3,3,0,0,0-.747-2.161,2.9,2.9,0,0,0-2.2-.784H5.7Zm32.49,1.274A12.577,12.577,0,0,1,37.031,30.3,8.553,8.553,0,0,1,33.743,34a9.157,9.157,0,0,1-4.856,1.3,9.286,9.286,0,0,1-4.834-1.252,8.538,8.538,0,0,1-3.289-3.582,12.215,12.215,0,0,1-1.238-5.347v-1.2a12.633,12.633,0,0,1,1.15-5.53,8.532,8.532,0,0,1,3.3-3.7,9.221,9.221,0,0,1,4.885-1.3,9.131,9.131,0,0,1,4.834,1.289,8.685,8.685,0,0,1,3.3,3.669,12.27,12.27,0,0,1,1.194,5.457Zm-5.229-.894A8.969,8.969,0,0,0,31.9,19.055a3.406,3.406,0,0,0-3.04-1.648q-3.867,0-4.087,5.8l-.015,1.567a9.224,9.224,0,0,0,1.04,4.819,3.4,3.4,0,0,0,3.091,1.685,3.36,3.36,0,0,0,3-1.655,8.972,8.972,0,0,0,1.069-4.761Zm25.137,3.9a7.789,7.789,0,0,1-1.2,3.933,7.249,7.249,0,0,1-3.083,2.644,10.5,10.5,0,0,1-4.534.938,8.375,8.375,0,0,1-6.621-2.739q-2.417-2.739-2.417-7.734V23.765a12.91,12.91,0,0,1,1.091-5.486,8.269,8.269,0,0,1,3.142-3.633,8.767,8.767,0,0,1,4.746-1.282,9.193,9.193,0,0,1,6.24,2.043A8.074,8.074,0,0,1,58.14,21.04H53.013a3.82,3.82,0,0,0-.981-2.8,4.036,4.036,0,0,0-2.812-.85,3.071,3.071,0,0,0-2.812,1.436,9.226,9.226,0,0,0-.937,4.585v1.509a10.209,10.209,0,0,0,.857,4.878,3.136,3.136,0,0,0,2.952,1.465,3.948,3.948,0,0,0,2.71-.835,3.544,3.544,0,0,0,1-2.651Zm9.683-.718-2.109,2.314V35H60.527V13.672h5.142v9.4l1.787-2.71,4.6-6.694h6.357l-7.207,9.434L78.413,35H72.319Zm25.166-1.1H84.858v5.083h9.551V35H79.717V13.672H94.438v3.97h-9.58v4.5h8.086Zm20.6-8.32h-6.4V35H102V17.642H95.713v-3.97H113.54Zm12.935,11.689a2.113,2.113,0,0,0-.8-1.758,9.923,9.923,0,0,0-2.805-1.3,26.912,26.912,0,0,1-3.281-1.3q-4.146-2.036-4.146-5.6a5.018,5.018,0,0,1,1.033-3.127,6.679,6.679,0,0,1,2.922-2.109,11.372,11.372,0,0,1,4.248-.754,9.948,9.948,0,0,1,4.124.82,6.529,6.529,0,0,1,2.834,2.336A6.1,6.1,0,0,1,131.616,20h-5.127a2.578,2.578,0,0,0-.8-2.021,3.112,3.112,0,0,0-2.161-.718,3.509,3.509,0,0,0-2.175.608,1.79,1.79,0,0,0,.081,3.032,11.084,11.084,0,0,0,3.091,1.377,18.934,18.934,0,0,1,3.633,1.531,6.1,6.1,0,0,1,3.457,5.493,5.208,5.208,0,0,1-2.109,4.395,9.382,9.382,0,0,1-5.786,1.6,11.479,11.479,0,0,1-4.695-.93,7.078,7.078,0,0,1-3.164-2.549,6.641,6.641,0,0,1-1.062-3.728h5.156a3.271,3.271,0,0,0,.886,2.527,4.189,4.189,0,0,0,2.878.813,3.309,3.309,0,0,0,2.014-.549A1.813,1.813,0,0,0,126.475,29.331ZM152.08,35h-5.112V26.094h-7.573V35h-5.142V13.672h5.142v8.467h7.573V13.672h5.112Zm21.313-10.225a12.577,12.577,0,0,1-1.157,5.522,8.553,8.553,0,0,1-3.289,3.7,9.157,9.157,0,0,1-4.856,1.3,9.286,9.286,0,0,1-4.834-1.252,8.538,8.538,0,0,1-3.289-3.582,12.215,12.215,0,0,1-1.238-5.347v-1.2a12.633,12.633,0,0,1,1.15-5.53,8.532,8.532,0,0,1,3.3-3.7,9.757,9.757,0,0,1,9.719-.015,8.685,8.685,0,0,1,3.3,3.669,12.27,12.27,0,0,1,1.194,5.457Zm-5.229-.894a8.969,8.969,0,0,0-1.062-4.827,3.406,3.406,0,0,0-3.04-1.648q-3.867,0-4.087,5.8l-.015,1.567A9.224,9.224,0,0,0,161,29.595a3.4,3.4,0,0,0,3.091,1.685,3.36,3.36,0,0,0,3-1.655,8.972,8.972,0,0,0,1.069-4.761Zm21.108,2.08h-8.086v5.083h9.551V35H176.045V13.672h14.722v3.97h-9.58v4.5h8.086Zm14.561,3.369a2.113,2.113,0,0,0-.8-1.758,9.923,9.923,0,0,0-2.805-1.3,26.912,26.912,0,0,1-3.281-1.3q-4.146-2.036-4.146-5.6a5.018,5.018,0,0,1,1.033-3.127,6.679,6.679,0,0,1,2.922-2.109,11.372,11.372,0,0,1,4.248-.754,9.948,9.948,0,0,1,4.124.82,6.529,6.529,0,0,1,2.834,2.336A6.1,6.1,0,0,1,208.975,20h-5.127a2.578,2.578,0,0,0-.8-2.021,3.112,3.112,0,0,0-2.161-.718,3.509,3.509,0,0,0-2.175.608,1.79,1.79,0,0,0,.081,3.032,11.084,11.084,0,0,0,3.091,1.377,18.934,18.934,0,0,1,3.633,1.531,6.1,6.1,0,0,1,3.457,5.493,5.208,5.208,0,0,1-2.109,4.395,9.382,9.382,0,0,1-5.786,1.6,11.479,11.479,0,0,1-4.695-.93,7.078,7.078,0,0,1-3.164-2.549,6.641,6.641,0,0,1-1.062-3.728h5.156a3.271,3.271,0,0,0,.886,2.527,4.189,4.189,0,0,0,2.878.813,3.309,3.309,0,0,0,2.014-.549A1.813,1.813,0,0,0,203.833,29.331Z"/>
    </g>
  </g>
</svg>
